<svg width="32" height="32" viewBox="0 0 32 32" fill="none" xmlns="http://www.w3.org/2000/svg">
<path d="M5.728 9.5104H9.568V22.72H5.728V9.5104ZM10.3744 19.7824H11.1616C11.52 19.7824 11.7888 19.776 11.968 19.7632C12.16 19.7376 12.3008 19.6864 12.3904 19.6096C12.48 19.5328 12.5376 19.424 12.5632 19.2832C12.6016 19.1424 12.6208 18.9376 12.6208 18.6688C12.6208 18.3872 12.6016 18.176 12.5632 18.0352C12.5376 17.8944 12.48 17.7856 12.3904 17.7088C12.2368 17.5808 11.8272 17.5168 11.1616 17.5168H10.3744V14.5792H11.0464C11.4048 14.5792 11.6736 14.5728 11.8528 14.56C12.0448 14.5344 12.1856 14.4832 12.2752 14.4064C12.3648 14.3296 12.4224 14.2272 12.448 14.0992C12.4864 13.9584 12.5056 13.7664 12.5056 13.5232C12.5056 13.2672 12.4864 13.0752 12.448 12.9472C12.4224 12.8064 12.3648 12.6976 12.2752 12.6208C12.1856 12.544 12.0448 12.4992 11.8528 12.4864C11.6736 12.4608 11.4048 12.448 11.0464 12.448H10.3744V9.5104H12.5632C15.136 9.5104 16.4224 10.6176 16.4224 12.832C16.4224 13.7664 16.2368 14.4704 15.8656 14.944C15.5072 15.4176 14.9312 15.7504 14.1376 15.9424V16.0192C14.9696 16.2112 15.5648 16.512 15.9232 16.9216C16.3328 17.408 16.5376 18.1632 16.5376 19.1872C16.5376 20.3648 16.224 21.248 15.5968 21.8368C14.9696 22.4256 13.9648 22.72 12.5824 22.72H10.3744V19.7824Z" fill="url(#paint0_linear_4_6)"/>
<path d="M17.5153 9.5104H28.3249V12.5824H17.5153V9.5104ZM20.9905 13.3504H24.8305V22.72H20.9905V13.3504Z" fill="url(#paint1_linear_4_6)"/>
<defs>
<linearGradient id="paint0_linear_4_6" x1="17.6" y1="0.96" x2="17.6" y2="25.92" gradientUnits="userSpaceOnUse">
<stop stop-color="#155DFC" stop-opacity="0.9"/>
<stop offset="1" stop-color="#155DFC"/>
</linearGradient>
<linearGradient id="paint1_linear_4_6" x1="17.6" y1="0.96" x2="17.6" y2="25.92" gradientUnits="userSpaceOnUse">
<stop stop-color="#155DFC" stop-opacity="0.9"/>
<stop offset="1" stop-color="#155DFC"/>
</linearGradient>
</defs>
</svg>
